<svg id="圖層_1" data-name="圖層 1" xmlns="http://www.w3.org/2000/svg" viewBox="0 0 445.4 188.72"><defs><style>.cls-1{fill:#f15a24;}.cls-2{fill:#fff;}.cls-3{fill:#4d4d4d;}</style></defs><rect class="cls-1" x="47.31" y="194.1" width="126.84" height="126.84" transform="translate(254.29 -122.57) rotate(60)"/><path class="cls-2" d="M233.66,282V205.29h12.79l27.93,63.93h.33c-.22-2.08-.38-4.06-.49-6s-.2-3.76-.27-5.59-.12-3.71-.16-5.64-.05-4-.05-6.13V205.29h9.34V282H271.37L242,215.18h-.43c.14,2,.31,4,.49,6s.33,4,.48,6,.25,4,.32,6,.11,4,.11,6V282Z" transform="translate(-24.09 -155.44)"/><path class="cls-2" d="M318.65,283.08q-10.22,0-15.1-5.1t-4.89-15.21V224.42h9.67v36.85q0,6.87,2.85,10.42t9.83,3.55q6,0,9.46-2.53a13.57,13.57,0,0,0,4.88-7.25,39,39,0,0,0,1.45-11.39V224.42h9.67V282h-7.73l-1.4-7.74h-.54a18.3,18.3,0,0,1-4.72,5.16,17.75,17.75,0,0,1-6,2.79A29.8,29.8,0,0,1,318.65,283.08Z" transform="translate(-24.09 -155.44)"/><path class="cls-2" d="M387.19,283.08a25.19,25.19,0,0,1-12.35-2.85,23.29,23.29,0,0,1-8.49-8.06,37.57,37.57,0,0,1-4.89-12.46,76.49,76.49,0,0,1-1.56-16.06,68.27,68.27,0,0,1,2.85-20.74A28.82,28.82,0,0,1,371.67,209q6.06-5,15.63-5a25.53,25.53,0,0,1,12.36,2.8,22.93,22.93,0,0,1,8.49,8,39.28,39.28,0,0,1,4.94,12.47,74.22,74.22,0,0,1,1.61,16.11,75.77,75.77,0,0,1-1.61,16.23,38.5,38.5,0,0,1-4.94,12.51,23.22,23.22,0,0,1-8.55,8.06A25.48,25.48,0,0,1,387.19,283.08Zm.22-8.6q6.45,0,10.26-3.7t5.48-10.64a71.88,71.88,0,0,0,1.67-16.6q0-14.61-3.87-22.78t-13.43-8.16q-6.45,0-10.37,3.7t-5.64,10.64a81,81,0,0,0,0,33.2c1.14,4.62,3,8.17,5.58,10.64S383.11,274.48,387.41,274.48Z" transform="translate(-24.09 -155.44)"/><path class="cls-2" d="M446.61,283.08a47.94,47.94,0,0,1-8.7-.86,31.79,31.79,0,0,1-7.63-2.26v-9.13a47,47,0,0,0,6.88,2.2,34.53,34.53,0,0,0,8.7,1.13,15.53,15.53,0,0,0,7.41-1.66,11.18,11.18,0,0,0,4.84-5.32,23.37,23.37,0,0,0,1.72-9.78V205.29h9.67v53.4a30.86,30.86,0,0,1-2.58,13.22,18,18,0,0,1-7.69,8.32A25.57,25.57,0,0,1,446.61,283.08Z" transform="translate(-24.09 -155.44)"/><rect class="cls-3" x="52.31" y="178.66" width="126.84" height="126.84" transform="translate(243.42 -134.63) rotate(60)"/><path class="cls-2" d="M91.77,282.23V205.51h12.78l27.94,63.93h.32q-.31-3.1-.48-6c-.11-1.9-.2-3.76-.27-5.59s-.13-3.7-.16-5.64-.05-4-.05-6.12V205.51h9.34v76.72H129.48L100.15,215.4h-.43c.14,2,.3,4,.48,6s.34,4,.49,6,.25,4,.32,6,.11,4,.11,6v42.76Z" transform="translate(-24.09 -155.44)"/></svg>