<svg id="圖層_1" data-name="圖層 1" xmlns="http://www.w3.org/2000/svg" viewBox="0 0 739 739"><defs><style>.cls-1{fill:none;}.cls-2,.cls-3{fill:#fff;}.cls-2{stroke:#000;stroke-miterlimit:10;stroke-width:16px;}</style></defs><rect class="cls-1" width="739" height="739"/><path class="cls-2" d="M1443.31,375.64" transform="translate(-629 -190)"/><path class="cls-2" d="M1509,676.58" transform="translate(-629 -190)"/><path class="cls-2" d="M437.88,316.4" transform="translate(-629 -190)"/><path class="cls-2" d="M903.14,492.47" transform="translate(-629 -190)"/><path class="cls-3" d="M950.59,528.92V426.1H979L1006,508.9h.43c-.2-3.36-.36-6.6-.51-9.72s-.24-6.05-.28-8.78-.1-5.19-.15-7.35-.07-4-.07-5.4V426.1H1024V528.92H995.37L968.3,445.4h-.58c.19,3.45.38,6.79.58,10s.36,6.24.5,9.08.24,5.37.29,7.63.07,4.1.07,5.54v51.27Z" transform="translate(-629 -190)"/><path class="cls-3" d="M1064.2,530.35q-12.53,0-19.51-7.41t-7-21.38V450.29h20.87v45.94q0,7.92,2.74,12.38t9.94,4.47q6.91,0,10.51-3.17a16.72,16.72,0,0,0,5-9,60.26,60.26,0,0,0,1.36-13.61v-37H1109v78.63h-15.85l-3.45-10.09h-1.15a22.15,22.15,0,0,1-6,6.2,28.12,28.12,0,0,1-8.35,4A35.61,35.61,0,0,1,1064.2,530.35Z" transform="translate(-629 -190)"/><path class="cls-3" d="M1160.1,530.35a39.19,39.19,0,0,1-17.42-3.6,31.14,31.14,0,0,1-12.1-10.44,48.15,48.15,0,0,1-7-16.63,97.59,97.59,0,0,1-2.31-22.32q0-16.69,4.18-28.58t12.74-18.14q8.56-6.27,22-6.27a39.24,39.24,0,0,1,17.43,3.6,31.27,31.27,0,0,1,12.09,10.44,48.26,48.26,0,0,1,7.06,16.71,109.06,109.06,0,0,1,0,44.56,48.16,48.16,0,0,1-7.06,16.63,31.11,31.11,0,0,1-12.09,10.44A39.24,39.24,0,0,1,1160.1,530.35Zm0-18a13.49,13.49,0,0,0,10.08-4q3.9-4,5.76-11.74a84.6,84.6,0,0,0,1.88-19.44q0-17.13-4.18-26t-13.54-8.86a13.75,13.75,0,0,0-10.15,4q-4,4-5.76,11.74a104.32,104.32,0,0,0,0,38.59q1.8,7.77,5.76,11.74A13.75,13.75,0,0,0,1160.1,512.35Z" transform="translate(-629 -190)"/><path class="cls-3" d="M1237.14,530.35a85.6,85.6,0,0,1-10.65-.71,69.8,69.8,0,0,1-11-2.31V509.48q6.76,1.44,12.24,2.08a76.05,76.05,0,0,0,8.64.65,21,21,0,0,0,9.65-1.94,12,12,0,0,0,5.54-6,26.54,26.54,0,0,0,1.81-10.58V426.1h20.44v67.39q0,12.11-3.81,20.3a25.89,25.89,0,0,1-11.88,12.39Q1250.1,530.35,1237.14,530.35Z" transform="translate(-629 -190)"/><rect class="cls-3" x="41" y="376" width="619" height="23"/><rect class="cls-3" x="688" y="548" width="437" height="23" transform="translate(837 -537) rotate(90)"/><rect class="cls-3" x="665.5" y="526.5" width="394" height="23" transform="translate(771.5 -514.5) rotate(90)"/><rect class="cls-3" x="760" y="606" width="529" height="23" transform="translate(1420 1045) rotate(180)"/><rect class="cls-3" x="760" y="713" width="114" height="23" transform="translate(1005 1259) rotate(180)"/><rect class="cls-3" x="714.5" y="651.5" width="114" height="23" transform="translate(805.5 -298.5) rotate(90)"/></svg>